<?xml version="1.0" encoding="utf-8"?>
<!-- Generator: Adobe Illustrator 23.0.1, SVG Export Plug-In . SVG Version: 6.00 Build 0)  -->
<svg version="1.1" id="Слой_1" xmlns="http://www.w3.org/2000/svg" xmlns:xlink="http://www.w3.org/1999/xlink" x="0px" y="0px"
	 viewBox="0 0 1920 1080" style="enable-background:new 0 0 1920 1080;" xml:space="preserve">
<style type="text/css">
	.st0{fill:#6EA6FF;stroke:#000000;stroke-width:4;stroke-miterlimit:10;}
	.st1{fill:#FFFFFF;stroke:#000000;stroke-width:4;stroke-miterlimit:10;}
</style>
<path class="st0" d="M273.6,79.7h1336.3c127.7,0,232.2,104.5,232.2,232.2"/>
<path class="st0" d="M1698.2,906.5H361.9c-127.7,0-232.2-104.5-232.2-232.2"/>
<path class="st1" d="M124.3,295.5c0-127.7,104.5-170.9,232.2-170.9h1170.6"/>
<path class="st1" d="M1847.5,629.4c0,127.7-104.5,232.2-232.2,232.2H444.8"/>
<g>
	<path d="M387.1,413.3H259.6V466h102.5v18.2H259.6v52.7h127.5v17.9H241.6V395.4h145.5V413.3z"/>
	<path d="M437.3,413.3c-4.6,0-8.6,4-8.6,8.6v106.3c0,4.6,4,8.6,8.6,8.6h132.4v17.9H437.3c-14.8,0-26.6-11.7-26.6-26.6V422
		c0-14.8,11.7-26.6,26.6-26.6h132.4v17.9H437.3z"/>
	<path d="M756.4,395.4v159.4h-18.2v-70.6H610.9v70.6H593V395.4h17.9V466h127.3v-70.6H756.4z"/>
	<path d="M913.5,395.4c14.8,0,26.6,11.7,26.6,26.6v106.3c0,14.8-11.7,26.6-26.6,26.6H807.3c-14.8,0-26.6-11.7-26.6-26.6V422
		c0-14.8,11.7-26.6,26.6-26.6H913.5z M913.5,536.9c4.6,0,8.6-4,8.6-8.6V422c0-4.6-4-8.6-8.6-8.6H807.3c-4.6,0-8.6,4-8.6,8.6v106.3
		c0,4.6,4,8.6,8.6,8.6H913.5z"/>
	<path d="M1097.7,395.4c14.8,0,26.6,11.7,26.6,26.6v132.8h-17.9v-58.2H982.8v58.2h-17.9V422c0-14.8,11.7-26.6,26.6-26.6H1097.7z
		 M1106.4,478.7V422c0-4.6-4-8.6-8.6-8.6H991.5c-4.6,0-8.6,4-8.6,8.6v56.7H1106.4z"/>
	<path d="M1290.6,395.4h17.9v132.8c0,14.8-11.7,26.6-26.6,26.6h-106.3c-14.8,0-26.6-11.7-26.6-26.6V395.4h17.9v132.8
		c0,4.6,4,8.6,8.6,8.6h106.3c4.6,0,8.6-4,8.6-8.6V395.4z"/>
	<path d="M1466.1,395.4c14.8,0,26.6,11.7,26.6,26.6v106.3c0,14.8-11.7,26.6-26.6,26.6h-132.8V395.4H1466.1z M1474.8,422
		c0-4.6-4-8.6-8.6-8.6h-106.3c-4.6,0-8.6,4-8.6,8.6v106.3c0,4.6,4,8.6,8.6,8.6h106.3c4.6,0,8.6-4,8.6-8.6V422z"/>
	<path d="M1517.7,395.4h17.9v159.4h-17.9V395.4z"/>
	<path d="M1717.6,395.4v17.9H1647v141.5h-17.9V413.3h-70.8v-17.9H1717.6z"/>
</g>
</svg>
